<svg width="591" height="767" viewBox="0 0 591 767" fill="none" xmlns="http://www.w3.org/2000/svg">
<path d="M2.62381 489.73L2.62628 489.773L2.62687 489.816C3.88815 581.587 40.4401 652.291 96.6415 698.931C152.874 745.597 228.908 768.275 309.251 763.684C469.704 754.516 592.345 617.011 583.177 456.558C580.935 417.314 583.066 369.761 585.275 320.485C585.346 318.89 585.418 317.293 585.489 315.694C587.773 264.659 589.992 211.977 587.464 164.648C584.933 117.268 577.653 75.5526 561.133 46.3053C552.894 31.7183 542.387 20.2895 529.069 12.7762C515.829 5.30743 499.675 1.63123 479.949 2.7078C337.132 60.6212 215.461 142.31 130.659 229.606C45.7305 317.03 -1.94441 409.779 2.62381 489.73Z" stroke="url(#paint0_linear_2043_179)" stroke-width="4"/>
<defs>
<linearGradient id="paint0_linear_2043_179" x1="326.325" y1="282.426" x2="153.619" y2="774.58" gradientUnits="userSpaceOnUse">
<stop stop-color="#0D030A"/>
<stop offset="0.0001" stop-color="#0046FF"/>
<stop offset="1" stop-color="white"/>
</linearGradient>
</defs>
</svg>
